# xmcd
#
# Track frame offsets: 
#        150
#        19933
#        32545
#        48254
#        64717
#        77214
#        98294
#        108435
#        130098
#        148390
#        166065
#        186127
#
# Disc length: 2653 seconds
#
# Revision: 0
# Processed by: cddbd v1.5.2PL0 Copyright (c) Steve Scherf et al.
# Submitted via: ExactAudioCopyFreeDBPlugin 1.0
#
DISCID=950a5b0c
DTITLE=Amy Rigby - The Old Guys
DYEAR=2018
DGENRE=Country
TTITLE0=From Philip Roth to R Zimmerman
TTITLE1=Are We Still There Yet
TTITLE2=Back from Amarillo
TTITLE3=Playing Pittsburgh
TTITLE4=Leslie
TTITLE5=The Old Guys
TTITLE6=On the Barricade
TTITLE7=New Sheriff
TTITLE8=Robert Altman
TTITLE9=Slow Burner
TTITLE10=Bob
TTITLE11=One Off
EXTD=
EXTT0=
EXTT1=
EXTT2=
EXTT3=
EXTT4=
EXTT5=
EXTT6=
EXTT7=
EXTT8=
EXTT9=
EXTT10=
EXTT11=
PLAYORDER=
